# xmcd
#
# Track frame offsets: 
#        150
#        15435
#        36137
#
# Disc length: 721 seconds
#
# Revision: 8
# Processed by: cddbd v1.5.2PL0 Copyright (c) Steve Scherf et al.
# Submitted via: ExactAudioCopy v1.3
#
DISCID=1602cf03
DTITLE=Idlewild - You Held The World In Your Arms [CD 2)
DYEAR=2002
DGENRE=Rock
TTITLE0=You Held The World In Your Arms
TTITLE1=A Distant History
TTITLE2=I Was Made To Think It
EXTD=YEAR: 2002
EXTT0=
EXTT1=
EXTT2=
PLAYORDER=
